<mxfile host="app.diagrams.net" modified="2022-11-12T17:21:44.776Z" agent="5.0 (Windows NT 10.0; Win64; x64) AppleWebKit/537.36 (KHTML, like Gecko) Chrome/106.0.0.0 Safari/537.36 OPR/92.0.0.0" etag="x8oXizvNHajxdG-EZsOX" version="20.5.3" type="github">
  <diagram id="sqjAfhwES0Bqq7wNGngI" name="Pagina-1">
    <mxGraphModel dx="1382" dy="764" grid="1" gridSize="10" guides="1" tooltips="1" connect="1" arrows="1" fold="1" page="1" pageScale="1" pageWidth="827" pageHeight="1169" math="0" shadow="0">
      <root>
        <mxCell id="0" />
        <mxCell id="1" parent="0" />
        <mxCell id="g-ClLpLpLdnSDnxStXne-26" value="tutorial" style="shape=umlFrame;whiteSpace=wrap;html=1;" vertex="1" parent="1">
          <mxGeometry x="20" y="160" width="790" height="300" as="geometry" />
        </mxCell>
        <mxCell id="g-ClLpLpLdnSDnxStXne-1" value="«abstract»&lt;br&gt;&lt;b&gt;ComparableTutorialStage&lt;/b&gt;" style="html=1;" vertex="1" parent="1">
          <mxGeometry x="335" y="180" width="160" height="40" as="geometry" />
        </mxCell>
        <mxCell id="g-ClLpLpLdnSDnxStXne-2" value="&lt;b&gt;WelcomeStage&lt;/b&gt;" style="html=1;" vertex="1" parent="1">
          <mxGeometry x="40" y="340" width="110" height="40" as="geometry" />
        </mxCell>
        <mxCell id="g-ClLpLpLdnSDnxStXne-3" value="&lt;b&gt;DicePresentationStage&lt;/b&gt;" style="html=1;" vertex="1" parent="1">
          <mxGeometry x="640" y="400" width="150" height="40" as="geometry" />
        </mxCell>
        <mxCell id="g-ClLpLpLdnSDnxStXne-4" value="&lt;b&gt;ExitZoneExplanationStage&lt;/b&gt;" style="html=1;" vertex="1" parent="1">
          <mxGeometry x="260" y="400" width="170" height="40" as="geometry" />
        </mxCell>
        <mxCell id="g-ClLpLpLdnSDnxStXne-5" value="&lt;b&gt;FirstOpponentTurnStage&lt;/b&gt;" style="html=1;" vertex="1" parent="1">
          <mxGeometry x="460" y="400" width="160" height="40" as="geometry" />
        </mxCell>
        <mxCell id="g-ClLpLpLdnSDnxStXne-6" value="&lt;b&gt;GameGoalStage&lt;/b&gt;" style="html=1;" vertex="1" parent="1">
          <mxGeometry x="550" y="340" width="110" height="40" as="geometry" />
        </mxCell>
        <mxCell id="g-ClLpLpLdnSDnxStXne-7" value="&lt;b&gt;GetPawnsOutStage&lt;/b&gt;" style="html=1;" vertex="1" parent="1">
          <mxGeometry x="630" y="260" width="120" height="40" as="geometry" />
        </mxCell>
        <mxCell id="g-ClLpLpLdnSDnxStXne-8" value="&lt;b&gt;PawnDirectionStage&lt;/b&gt;" style="html=1;" vertex="1" parent="1">
          <mxGeometry x="380" y="340" width="130" height="40" as="geometry" />
        </mxCell>
        <mxCell id="g-ClLpLpLdnSDnxStXne-9" value="&lt;b&gt;PointBlockingExplanationStage&lt;/b&gt;" style="html=1;" vertex="1" parent="1">
          <mxGeometry x="40" y="400" width="200" height="40" as="geometry" />
        </mxCell>
        <mxCell id="g-ClLpLpLdnSDnxStXne-10" value="&lt;b&gt;TurnTrialStage&lt;/b&gt;" style="html=1;" vertex="1" parent="1">
          <mxGeometry x="690" y="340" width="100" height="40" as="geometry" />
        </mxCell>
        <mxCell id="g-ClLpLpLdnSDnxStXne-11" value="&lt;b&gt;TutorialOverStage&lt;/b&gt;" style="html=1;" vertex="1" parent="1">
          <mxGeometry x="120" y="260" width="120" height="40" as="geometry" />
        </mxCell>
        <mxCell id="g-ClLpLpLdnSDnxStXne-12" value="&lt;b&gt;VictoryConditionsStage&lt;/b&gt;" style="html=1;" vertex="1" parent="1">
          <mxGeometry x="180" y="340" width="160" height="40" as="geometry" />
        </mxCell>
        <mxCell id="g-ClLpLpLdnSDnxStXne-15" value="" style="endArrow=block;endSize=16;endFill=0;html=1;rounded=0;entryX=0.5;entryY=1;entryDx=0;entryDy=0;startSize=6;sourcePerimeterSpacing=0;" edge="1" parent="1" target="g-ClLpLpLdnSDnxStXne-1">
          <mxGeometry width="160" relative="1" as="geometry">
            <mxPoint x="140" y="320" as="sourcePoint" />
            <mxPoint x="510" y="300" as="targetPoint" />
            <Array as="points">
              <mxPoint x="415" y="320" />
            </Array>
          </mxGeometry>
        </mxCell>
        <mxCell id="g-ClLpLpLdnSDnxStXne-16" value="" style="endArrow=none;html=1;rounded=0;startSize=6;sourcePerimeterSpacing=0;" edge="1" parent="1">
          <mxGeometry width="50" height="50" relative="1" as="geometry">
            <mxPoint x="165" y="320" as="sourcePoint" />
            <mxPoint x="190" y="320" as="targetPoint" />
          </mxGeometry>
        </mxCell>
        <mxCell id="g-ClLpLpLdnSDnxStXne-17" value="" style="endArrow=none;html=1;rounded=0;startSize=6;sourcePerimeterSpacing=0;" edge="1" parent="1">
          <mxGeometry width="50" height="50" relative="1" as="geometry">
            <mxPoint x="165" y="400" as="sourcePoint" />
            <mxPoint x="165" y="320" as="targetPoint" />
          </mxGeometry>
        </mxCell>
        <mxCell id="g-ClLpLpLdnSDnxStXne-18" value="" style="endArrow=none;html=1;rounded=0;startSize=6;sourcePerimeterSpacing=0;" edge="1" parent="1" source="g-ClLpLpLdnSDnxStXne-2">
          <mxGeometry width="50" height="50" relative="1" as="geometry">
            <mxPoint x="40" y="220" as="sourcePoint" />
            <mxPoint x="170" y="320" as="targetPoint" />
            <Array as="points">
              <mxPoint x="95" y="320" />
            </Array>
          </mxGeometry>
        </mxCell>
        <mxCell id="g-ClLpLpLdnSDnxStXne-19" value="" style="endArrow=none;html=1;rounded=0;startSize=6;sourcePerimeterSpacing=0;exitX=1;exitY=0.5;exitDx=0;exitDy=0;" edge="1" parent="1" source="g-ClLpLpLdnSDnxStXne-11">
          <mxGeometry width="50" height="50" relative="1" as="geometry">
            <mxPoint x="270" y="300" as="sourcePoint" />
            <mxPoint x="400" y="280" as="targetPoint" />
          </mxGeometry>
        </mxCell>
        <mxCell id="g-ClLpLpLdnSDnxStXne-20" value="" style="endArrow=none;html=1;rounded=0;startSize=6;sourcePerimeterSpacing=0;" edge="1" parent="1">
          <mxGeometry width="50" height="50" relative="1" as="geometry">
            <mxPoint x="380" y="280" as="sourcePoint" />
            <mxPoint x="630" y="279.5" as="targetPoint" />
          </mxGeometry>
        </mxCell>
        <mxCell id="g-ClLpLpLdnSDnxStXne-21" value="" style="endArrow=none;html=1;rounded=0;startSize=6;sourcePerimeterSpacing=0;" edge="1" parent="1">
          <mxGeometry width="50" height="50" relative="1" as="geometry">
            <mxPoint x="360" y="320" as="sourcePoint" />
            <mxPoint x="740" y="320" as="targetPoint" />
          </mxGeometry>
        </mxCell>
        <mxCell id="g-ClLpLpLdnSDnxStXne-22" value="" style="endArrow=none;html=1;rounded=0;startSize=6;sourcePerimeterSpacing=0;" edge="1" parent="1" target="g-ClLpLpLdnSDnxStXne-10">
          <mxGeometry width="50" height="50" relative="1" as="geometry">
            <mxPoint x="740" y="320" as="sourcePoint" />
            <mxPoint x="890" y="220" as="targetPoint" />
          </mxGeometry>
        </mxCell>
        <mxCell id="g-ClLpLpLdnSDnxStXne-23" value="" style="endArrow=none;html=1;rounded=0;startSize=6;sourcePerimeterSpacing=0;" edge="1" parent="1">
          <mxGeometry width="50" height="50" relative="1" as="geometry">
            <mxPoint x="360" y="400" as="sourcePoint" />
            <mxPoint x="360" y="320" as="targetPoint" />
          </mxGeometry>
        </mxCell>
        <mxCell id="g-ClLpLpLdnSDnxStXne-24" value="" style="endArrow=none;html=1;rounded=0;startSize=6;sourcePerimeterSpacing=0;" edge="1" parent="1">
          <mxGeometry width="50" height="50" relative="1" as="geometry">
            <mxPoint x="530" y="400" as="sourcePoint" />
            <mxPoint x="530" y="320" as="targetPoint" />
          </mxGeometry>
        </mxCell>
        <mxCell id="g-ClLpLpLdnSDnxStXne-25" value="" style="endArrow=none;html=1;rounded=0;startSize=6;sourcePerimeterSpacing=0;" edge="1" parent="1">
          <mxGeometry width="50" height="50" relative="1" as="geometry">
            <mxPoint x="675" y="400" as="sourcePoint" />
            <mxPoint x="675" y="320" as="targetPoint" />
          </mxGeometry>
        </mxCell>
        <mxCell id="g-ClLpLpLdnSDnxStXne-29" value="" style="endArrow=none;html=1;rounded=0;strokeColor=default;strokeWidth=1;startSize=6;sourcePerimeterSpacing=0;jumpStyle=none;jumpSize=4;exitX=0.5;exitY=0;exitDx=0;exitDy=0;" edge="1" parent="1" source="g-ClLpLpLdnSDnxStXne-12">
          <mxGeometry width="50" height="50" relative="1" as="geometry">
            <mxPoint x="260" y="560" as="sourcePoint" />
            <mxPoint x="260" y="320" as="targetPoint" />
          </mxGeometry>
        </mxCell>
        <mxCell id="g-ClLpLpLdnSDnxStXne-31" value="" style="endArrow=none;html=1;rounded=0;strokeColor=default;strokeWidth=1;startSize=6;sourcePerimeterSpacing=0;jumpStyle=none;jumpSize=4;" edge="1" parent="1" source="g-ClLpLpLdnSDnxStXne-8">
          <mxGeometry width="50" height="50" relative="1" as="geometry">
            <mxPoint x="280" y="360" as="sourcePoint" />
            <mxPoint x="445" y="320" as="targetPoint" />
          </mxGeometry>
        </mxCell>
        <mxCell id="g-ClLpLpLdnSDnxStXne-32" value="" style="endArrow=none;html=1;rounded=0;strokeColor=default;strokeWidth=1;startSize=6;sourcePerimeterSpacing=0;jumpStyle=none;jumpSize=4;exitX=0.5;exitY=0;exitDx=0;exitDy=0;" edge="1" parent="1" source="g-ClLpLpLdnSDnxStXne-6">
          <mxGeometry width="50" height="50" relative="1" as="geometry">
            <mxPoint x="290" y="370" as="sourcePoint" />
            <mxPoint x="605" y="320" as="targetPoint" />
          </mxGeometry>
        </mxCell>
        <mxCell id="g-ClLpLpLdnSDnxStXne-33" value="&lt;b&gt;Logic&lt;/b&gt;" style="html=1;" vertex="1" parent="1">
          <mxGeometry x="345" y="70" width="60" height="40" as="geometry" />
        </mxCell>
        <mxCell id="g-ClLpLpLdnSDnxStXne-34" value="" style="shape=requiredInterface;html=1;verticalLabelPosition=bottom;sketch=0;rotation=90;aspect=fixed;" vertex="1" parent="1">
          <mxGeometry x="455.5" y="74" width="17" height="34" as="geometry" />
        </mxCell>
        <mxCell id="g-ClLpLpLdnSDnxStXne-35" value="IView" style="text;html=1;strokeColor=none;fillColor=none;align=center;verticalAlign=middle;whiteSpace=wrap;rounded=0;" vertex="1" parent="1">
          <mxGeometry x="479" y="76" width="40" height="30" as="geometry" />
        </mxCell>
        <mxCell id="g-ClLpLpLdnSDnxStXne-37" value="&amp;lt;&amp;lt;Use&amp;gt;&amp;gt;" style="endArrow=open;endSize=12;dashed=1;html=1;rounded=0;strokeColor=default;strokeWidth=1;sourcePerimeterSpacing=0;jumpStyle=none;jumpSize=4;entryX=0.5;entryY=1;entryDx=0;entryDy=0;exitX=0.25;exitY=0;exitDx=0;exitDy=0;" edge="1" parent="1" source="g-ClLpLpLdnSDnxStXne-1" target="g-ClLpLpLdnSDnxStXne-33">
          <mxGeometry x="0.2" y="25" width="160" relative="1" as="geometry">
            <mxPoint x="240" y="140" as="sourcePoint" />
            <mxPoint x="400" y="140" as="targetPoint" />
            <mxPoint as="offset" />
          </mxGeometry>
        </mxCell>
        <mxCell id="g-ClLpLpLdnSDnxStXne-38" value="" style="endArrow=none;html=1;rounded=0;strokeColor=default;strokeWidth=1;startSize=6;sourcePerimeterSpacing=0;jumpStyle=none;jumpSize=4;entryX=1;entryY=0.5;entryDx=0;entryDy=0;entryPerimeter=0;exitX=0.806;exitY=0.05;exitDx=0;exitDy=0;exitPerimeter=0;" edge="1" parent="1" source="g-ClLpLpLdnSDnxStXne-1" target="g-ClLpLpLdnSDnxStXne-34">
          <mxGeometry width="50" height="50" relative="1" as="geometry">
            <mxPoint x="600" y="100" as="sourcePoint" />
            <mxPoint x="650" y="50" as="targetPoint" />
          </mxGeometry>
        </mxCell>
      </root>
    </mxGraphModel>
  </diagram>
</mxfile>
